<svg id="_レイヤー_1" xmlns="http://www.w3.org/2000/svg" viewBox="0 0 30 30"><defs><style>.cls-1{fill:#fff;stroke-width:0}</style></defs><g id="_グループ_121"><g id="_グループ_8"><path id="_パス_24" class="cls-1" d="M20.76 28.36H9.25c-4.19 0-7.59-3.41-7.6-7.6V9.25c0-4.19 3.41-7.59 7.6-7.6h11.51c4.19 0 7.59 3.41 7.6 7.6v11.51c0 4.19-3.4 7.59-7.6 7.6zM9.25 3.93c-2.93 0-5.31 2.38-5.32 5.32v11.51c0 2.93 2.38 5.31 5.31 5.31h11.51c2.93 0 5.31-2.38 5.32-5.32V9.24c0-2.93-2.38-5.31-5.32-5.32H9.24z"/></g><g id="_グループ_9"><path id="_パス_25" class="cls-1" d="M15 21.84c-3.78 0-6.84-3.06-6.84-6.84S11.22 8.16 15 8.16s6.84 3.06 6.84 6.84-3.06 6.84-6.84 6.84zm0-11.39c-2.51 0-4.55 2.04-4.55 4.55s2.04 4.55 4.55 4.55 4.55-2.04 4.55-4.55-2.04-4.55-4.55-4.55z"/></g><g id="_グループ_10"><path id="_パス_26" class="cls-1" d="M23.78 7.76a1.641 1.641 0 01-3.28 0 1.641 1.641 0 013.28 0z"/></g></g></svg>