<svg xmlns="http://www.w3.org/2000/svg" width="223.289" height="231.868"><path data-name="パス 1547" d="M111.646 0c12.143 0 22.789 8.543 33.746 12.1 11.357 3.685 24.968 3.156 34.416 10.035 9.549 6.946 13.218 20.1 20.166 29.641 6.878 9.451 18.3 16.967 21.984 28.322 3.557 10.955-1.14 23.693-1.14 35.833s4.7 24.881 1.14 35.836c-3.688 11.355-15.105 18.871-21.984 28.322-6.948 9.544-10.617 22.695-20.166 29.641-9.451 6.879-23.059 6.348-34.416 10.035-10.957 3.556-21.6 12.1-33.746 12.1s-22.791-8.546-33.746-12.1c-11.357-3.687-24.968-3.158-34.419-10.035-9.551-6.946-13.218-20.1-20.166-29.644-6.878-9.449-18.3-16.967-21.984-28.319-3.557-10.955 1.142-23.693 1.142-35.836S-2.226 91.054 1.331 80.1c3.688-11.355 15.105-18.871 21.984-28.322 6.948-9.544 10.62-22.7 20.166-29.644C52.934 15.258 66.543 15.787 77.9 12.1 88.855 8.543 99.5 0 111.646 0"/></svg>